<svg xmlns="http://www.w3.org/2000/svg" xmlns:xlink="http://www.w3.org/1999/xlink" version="1.1" width="612pt" height="792pt" viewBox="0 0 612 792">
<defs>
<clipPath id="clip_257">
<path transform="matrix(1,0,0,-1,0,792)" d="M.00000912 0H612V792H.00000912Z" fill-rule="evenodd"/>
</clipPath>
<clipPath id="clip_258">
<path transform="matrix(1,0,0,-1,0,792)" d="M.00000912 0H612V792H.00000912Z" fill-rule="evenodd"/>
</clipPath>
<clipPath id="clip_259">
<path transform="matrix(1,0,0,-1,0,792)" d="M.00000912 0H612V792H.00000912Z" fill-rule="evenodd"/>
</clipPath>
<clipPath id="clip_260">
<path transform="matrix(1,0,0,-1,0,792)" d="M.00000912 0H612V792H.00000912Z" fill-rule="evenodd"/>
</clipPath>
<clipPath id="clip_261">
<path transform="matrix(1,0,0,-1,0,792)" d="M72.024 599.14H391.274V664.18H72.024Z" fill-rule="evenodd"/>
</clipPath>
<clipPath id="clip_262">
<path transform="matrix(1,0,0,-1,0,792)" d="M72.024 599.14H391.274V664.18H72.024Z" fill-rule="evenodd"/>
</clipPath>
<clipPath id="clip_263">
<path transform="matrix(1,0,0,-1,0,792)" d="M72.024 599.14H391.274V664.18H72.024Z" fill-rule="evenodd"/>
</clipPath>
<clipPath id="clip_264">
<path transform="matrix(1,0,0,-1,0,792)" d="M72.024 599.14H391.274V664.18H72.024Z" fill-rule="evenodd"/>
</clipPath>
<clipPath id="clip_265">
<path transform="matrix(1,0,0,-1,0,792)" d="M72.024 599.14H391.274V664.18H72.024Z" fill-rule="evenodd"/>
</clipPath>
<clipPath id="clip_266">
<path transform="matrix(1,0,0,-1,0,792)" d="M72.024 599.14H391.274V664.18H72.024Z" fill-rule="evenodd"/>
</clipPath>
<clipPath id="clip_267">
<path transform="matrix(1,0,0,-1,0,792)" d="M72.024 599.14H391.274V664.18H72.024Z" fill-rule="evenodd"/>
</clipPath>
<clipPath id="clip_268">
<path transform="matrix(1,0,0,-1,0,792)" d="M72.024 599.14H391.274V664.18H72.024Z" fill-rule="evenodd"/>
</clipPath>
<clipPath id="clip_269">
<path transform="matrix(1,0,0,-1,0,792)" d="M72.024 599.14H391.274V664.18H72.024Z" fill-rule="evenodd"/>
</clipPath>
<clipPath id="clip_270">
<path transform="matrix(1,0,0,-1,0,792)" d="M72.024 599.14H391.274V664.18H72.024Z" fill-rule="evenodd"/>
</clipPath>
<clipPath id="clip_271">
<path transform="matrix(1,0,0,-1,0,792)" d="M72.024 599.14H391.274V664.18H72.024Z" fill-rule="evenodd"/>
</clipPath>
<clipPath id="clip_272">
<path transform="matrix(1,0,0,-1,0,792)" d="M72.024 599.14H391.274V664.18H72.024Z" fill-rule="evenodd"/>
</clipPath>
<clipPath id="clip_273">
<path transform="matrix(1,0,0,-1,0,792)" d="M72.024 599.14H391.274V664.18H72.024Z" fill-rule="evenodd"/>
</clipPath>
<clipPath id="clip_274">
<path transform="matrix(1,0,0,-1,0,792)" d="M72.024 599.14H391.274V664.18H72.024Z" fill-rule="evenodd"/>
</clipPath>
<clipPath id="clip_275">
<path transform="matrix(1,0,0,-1,0,792)" d="M391.27 599.14H539.61V664.18H391.27Z" fill-rule="evenodd"/>
</clipPath>
<clipPath id="clip_276">
<path transform="matrix(1,0,0,-1,0,792)" d="M391.27 599.14H539.61V664.18H391.27Z" fill-rule="evenodd"/>
</clipPath>
<clipPath id="clip_277">
<path transform="matrix(1,0,0,-1,0,792)" d="M391.27 599.14H539.61V664.18H391.27Z" fill-rule="evenodd"/>
</clipPath>
<clipPath id="clip_278">
<path transform="matrix(1,0,0,-1,0,792)" d="M391.27 599.14H539.61V664.18H391.27Z" fill-rule="evenodd"/>
</clipPath>
<clipPath id="clip_279">
<path transform="matrix(1,0,0,-1,0,792)" d="M391.27 599.14H539.61V664.18H391.27Z" fill-rule="evenodd"/>
</clipPath>
<clipPath id="clip_280">
<path transform="matrix(1,0,0,-1,0,792)" d="M391.27 599.14H539.61V664.18H391.27Z" fill-rule="evenodd"/>
</clipPath>
<clipPath id="clip_281">
<path transform="matrix(1,0,0,-1,0,792)" d="M72.024 551.26H391.274V599.14H72.024Z" fill-rule="evenodd"/>
</clipPath>
<clipPath id="clip_282">
<path transform="matrix(1,0,0,-1,0,792)" d="M72.024 551.26H391.274V599.14H72.024Z" fill-rule="evenodd"/>
</clipPath>
<clipPath id="clip_283">
<path transform="matrix(1,0,0,-1,0,792)" d="M72.024 551.26H391.274V599.14H72.024Z" fill-rule="evenodd"/>
</clipPath>
<clipPath id="clip_284">
<path transform="matrix(1,0,0,-1,0,792)" d="M72.024 551.26H391.274V599.14H72.024Z" fill-rule="evenodd"/>
</clipPath>
<clipPath id="clip_285">
<path transform="matrix(1,0,0,-1,0,792)" d="M72.024 551.26H391.274V599.14H72.024Z" fill-rule="evenodd"/>
</clipPath>
<clipPath id="clip_286">
<path transform="matrix(1,0,0,-1,0,792)" d="M72.024 551.26H391.274V599.14H72.024Z" fill-rule="evenodd"/>
</clipPath>
<clipPath id="clip_287">
<path transform="matrix(1,0,0,-1,0,792)" d="M72.024 551.26H391.274V599.14H72.024Z" fill-rule="evenodd"/>
</clipPath>
<clipPath id="clip_288">
<path transform="matrix(1,0,0,-1,0,792)" d="M72.024 551.26H391.274V599.14H72.024Z" fill-rule="evenodd"/>
</clipPath>
<clipPath id="clip_289">
<path transform="matrix(1,0,0,-1,0,792)" d="M72.024 551.26H391.274V599.14H72.024Z" fill-rule="evenodd"/>
</clipPath>
<clipPath id="clip_290">
<path transform="matrix(1,0,0,-1,0,792)" d="M72.024 551.26H391.274V599.14H72.024Z" fill-rule="evenodd"/>
</clipPath>
<clipPath id="clip_291">
<path transform="matrix(1,0,0,-1,0,792)" d="M72.024 551.26H391.274V599.14H72.024Z" fill-rule="evenodd"/>
</clipPath>
<clipPath id="clip_292">
<path transform="matrix(1,0,0,-1,0,792)" d="M391.27 551.26H539.61V599.14H391.27Z" fill-rule="evenodd"/>
</clipPath>
<clipPath id="clip_293">
<path transform="matrix(1,0,0,-1,0,792)" d="M391.27 551.26H539.61V599.14H391.27Z" fill-rule="evenodd"/>
</clipPath>
<clipPath id="clip_294">
<path transform="matrix(1,0,0,-1,0,792)" d="M391.27 551.26H539.61V599.14H391.27Z" fill-rule="evenodd"/>
</clipPath>
<clipPath id="clip_295">
<path transform="matrix(1,0,0,-1,0,792)" d="M391.27 551.26H539.61V599.14H391.27Z" fill-rule="evenodd"/>
</clipPath>
<clipPath id="clip_296">
<path transform="matrix(1,0,0,-1,0,792)" d="M391.27 551.26H539.61V599.14H391.27Z" fill-rule="evenodd"/>
</clipPath>
<clipPath id="clip_297">
<path transform="matrix(1,0,0,-1,0,792)" d="M391.27 551.26H539.61V599.14H391.27Z" fill-rule="evenodd"/>
</clipPath>
<clipPath id="clip_298">
<path transform="matrix(1,0,0,-1,0,792)" d="M.00000912 0H612V792H.00000912Z" fill-rule="evenodd"/>
</clipPath>
<clipPath id="clip_299">
<path transform="matrix(1,0,0,-1,0,792)" d="M.00000912 0H612V792H.00000912Z" fill-rule="evenodd"/>
</clipPath>
<clipPath id="clip_300">
<path transform="matrix(1,0,0,-1,0,792)" d="M.00000912 0H612V792H.00000912Z" fill-rule="evenodd"/>
</clipPath>
<clipPath id="clip_301">
<path transform="matrix(1,0,0,-1,0,792)" d="M.00000912 0H612V792H.00000912Z" fill-rule="evenodd"/>
</clipPath>
<clipPath id="clip_302">
<path transform="matrix(1,0,0,-1,0,792)" d="M72.024 482.83H305.80403V495.43H72.024Z" fill-rule="evenodd"/>
</clipPath>
<clipPath id="clip_303">
<path transform="matrix(1,0,0,-1,0,792)" d="M72.024 482.83H305.80403V495.43H72.024Z" fill-rule="evenodd"/>
</clipPath>
<clipPath id="clip_304">
<path transform="matrix(1,0,0,-1,0,792)" d="M72.024 482.83H305.80403V495.43H72.024Z" fill-rule="evenodd"/>
</clipPath>
<clipPath id="clip_305">
<path transform="matrix(1,0,0,-1,0,792)" d="M305.81 482.83H539.62V495.43H305.81Z" fill-rule="evenodd"/>
</clipPath>
<clipPath id="clip_306">
<path transform="matrix(1,0,0,-1,0,792)" d="M305.81 482.83H539.62V495.43H305.81Z" fill-rule="evenodd"/>
</clipPath>
<clipPath id="clip_307">
<path transform="matrix(1,0,0,-1,0,792)" d="M305.81 482.83H539.62V495.43H305.81Z" fill-rule="evenodd"/>
</clipPath>
<clipPath id="clip_308">
<path transform="matrix(1,0,0,-1,0,792)" d="M72.024 470.23H305.80403V482.83003H72.024Z" fill-rule="evenodd"/>
</clipPath>
<clipPath id="clip_309">
<path transform="matrix(1,0,0,-1,0,792)" d="M72.024 470.23H305.80403V482.83003H72.024Z" fill-rule="evenodd"/>
</clipPath>
<clipPath id="clip_310">
<path transform="matrix(1,0,0,-1,0,792)" d="M72.024 470.23H305.80403V482.83003H72.024Z" fill-rule="evenodd"/>
</clipPath>
<clipPath id="clip_311">
<path transform="matrix(1,0,0,-1,0,792)" d="M305.81 470.23H539.62V482.83003H305.81Z" fill-rule="evenodd"/>
</clipPath>
<clipPath id="clip_312">
<path transform="matrix(1,0,0,-1,0,792)" d="M305.81 470.23H539.62V482.83003H305.81Z" fill-rule="evenodd"/>
</clipPath>
<clipPath id="clip_313">
<path transform="matrix(1,0,0,-1,0,792)" d="M305.81 470.23H539.62V482.83003H305.81Z" fill-rule="evenodd"/>
</clipPath>
<clipPath id="clip_314">
<path transform="matrix(1,0,0,-1,0,792)" d="M.00000912 0H612V792H.00000912Z" fill-rule="evenodd"/>
</clipPath>
</defs>
<g>
<g clip-path="url(#clip_257)">
<text xml:space="preserve" transform="matrix(1 0 -0 1 0 792)" font-size="8.04" font-family="Ubuntu"><tspan y="-712.3" x="72.024"> </tspan></text>
</g>
<g clip-path="url(#clip_258)">
<text xml:space="preserve" transform="matrix(1 0 -0 1 0 792)" font-size="14.04" font-family="Ubuntu" font-weight="bold"><tspan y="-683.38" x="72.024 85.34796 93.87024 99.73896 107.86812 111.23772 119.74596 127.45392 135.93408 144.13344 150.0162 154.07376 162.27312 170.41632 177.47844">Work Experience</tspan></text>
</g>
<g clip-path="url(#clip_259)">
<text xml:space="preserve" transform="matrix(1 0 -0 1 0 792)" font-size="14.04" font-family="Ubuntu" font-weight="bold"><tspan y="-683.38" x="185.54"> </tspan></text>
</g>
<g clip-path="url(#clip_260)">
<path transform="matrix(1,0,0,-1,0,792)" d="M70.584 678.34H541.534V679.78H70.584Z" fill-rule="evenodd"/>
</g>
<g clip-path="url(#clip_261)">
<g clip-path="url(#clip_262)">
<text xml:space="preserve" transform="matrix(1 0 -0 1 0 792)" font-size="11.04" font-family="Ubuntu" font-weight="bold"><tspan y="-653.62" x="77.424 84.25776 90.76032 97.20768 99.85728 110.17968 116.62704 121.93728 126.83904 130.08481 136.58737 139.08242 147.47281 154.07472 160.17984 166.28496 168.82416 175.2936 180.8136 187.51488 192.32833 195.45265 201.55777">The Westin Nova Scotian</tspan></text>
</g>
<g clip-path="url(#clip_263)">
<text xml:space="preserve" transform="matrix(1 0 -0 1 0 792)" font-size="11.04" font-family="Ubuntu" font-weight="bold"><tspan y="-653.62" x="208.13"> </tspan></text>
</g>
<g clip-path="url(#clip_264)">
<text xml:space="preserve" transform="matrix(1 0 -0 1 0 792)" font-size="11.04" font-family="Ubuntu" font-style="italic"><tspan y="-641.02" x="77.424 84.24673 90.25249 96.368648 102.363368 108.358089 114.109928 118.40449 120.95473 128.49504 134.48976 140.5949 145.03298 150.78482 156.81267 162.53139 166.63828 171.18675 177.18148">Banquet Houseperson</tspan></text>
</g>
<g clip-path="url(#clip_265)">
<text xml:space="preserve" transform="matrix(1 0 -0 1 0 792)" font-size="11.04" font-family="Ubuntu" font-style="italic"><tspan y="-641.02" x="183.26"> </tspan></text>
</g>
<g clip-path="url(#clip_266)">
<text xml:space="preserve" transform="matrix(1 0 -0 1 0 792)" font-size="11.04" font-family="CourierNewPSMT"><tspan y="-626.5" x="77.424">&#x25a0;</tspan></text>
</g>
<g clip-path="url(#clip_267)">
<text xml:space="preserve" transform="matrix(1 0 -0 1 0 792)" font-size="11.04" font-family="ArialMT"><tspan y="-626.5" x="84.024"> </tspan></text>
</g>
<g clip-path="url(#clip_268)">
<text xml:space="preserve" transform="matrix(1 0 -0 1 0 792)" font-size="11.04" font-family="Ubuntu"><tspan y="-626.5" x="95.424 98.39376 107.8992 114.401767 117.41569 123.49873 133.00418 139.09825 145.43521 149.87329 152.66641 159.00337 165.38449 167.90161 174.1392 180.48722 186.60337 192.9624 197.268 203.38416 207.82224 210.61536 215.62752 221.3904 224.40431 226.9104 234.81505 240.9312 245.85504 248.61504 254.99616 261.33314 266.25697 269.00593 271.55616 278.12495 282.43055 288.19343 293.22767 297.66575 300.45887 305.59248 311.35536 314.36927 317.35008">Implementing Theoretical Designs, Practically</tspan></text>
</g>
<g clip-path="url(#clip_269)">
<text xml:space="preserve" transform="matrix(1 0 -0 1 0 792)" font-size="11.04" font-family="Ubuntu"><tspan y="-626.5" x="322.87"> </tspan></text>
</g>
<g clip-path="url(#clip_270)">
<text xml:space="preserve" transform="matrix(1 0 -0 1 0 792)" font-size="11.04" font-family="CourierNewPSMT"><tspan y="-613.78" x="77.424">&#x25a0;</tspan></text>
</g>
<g clip-path="url(#clip_271)">
<text xml:space="preserve" transform="matrix(1 0 -0 1 0 792)" font-size="11.04" font-family="ArialMT"><tspan y="-613.78" x="84.024"> </tspan></text>
</g>
<g clip-path="url(#clip_272)">
<text xml:space="preserve" transform="matrix(1 0 -0 1 0 792)" font-size="11.04" font-family="Ubuntu"><tspan y="-613.78" x="95.424 102.986408 109.323368 115.82593 121.942089 126.24768 131.17153 135.6096 141.37248 147.70944 154.212 156.85057 163.18753 169.56865 172.1189 177.88178 184.21874 190.7213 193.2053 199.08963 205.42659 208.33011 212.63571 215.42884 218.39859 221.4125 224.16147 230.49843 236.87955 239.4298 243.86788 250.17173 256.34309 258.8381 266.8752 273.0024 279.11857 285.62113 290.54496 293.03999 299.52049 303.82609 306.3763 310.8144 317.11824 323.28959 325.7846 332.50798 338.8449 343.76875 348.20683 354.72044 364.19276 370.3089">Understanding and Fulfilling the Needs of the Customer</tspan></text>
</g>
<g clip-path="url(#clip_273)">
<text xml:space="preserve" transform="matrix(1 0 -0 1 0 792)" font-size="11.04" font-family="Ubuntu"><tspan y="-613.78" x="374.59"> </tspan></text>
</g>
<g clip-path="url(#clip_274)">
<text xml:space="preserve" transform="matrix(1 0 -0 1 0 792)" font-size="11.04" font-family="Ubuntu"><tspan y="-601.18" x="77.424"> </tspan></text>
</g>
</g>
<g clip-path="url(#clip_275)">
<g clip-path="url(#clip_276)">
<text xml:space="preserve" transform="matrix(1 0 -0 1 0 792)" font-size="11.04" font-family="Ubuntu"><tspan y="-653.62" x="417.07 426.68586 432.44874 437.9356 440.48585 446.7124 452.93898 459.06617 465.29273">May 2022 </tspan></text>
</g>
<g clip-path="url(#clip_277)">
<text xml:space="preserve" transform="matrix(1 0 -0 1 0 792)" font-size="11.04" font-family="Ubuntu"><tspan y="-653.62" x="467.86">&#x2013;</tspan></text>
</g>
<g clip-path="url(#clip_278)">
<text xml:space="preserve" transform="matrix(1 0 -0 1 0 792)" font-size="11.04" font-family="Ubuntu"><tspan y="-653.62" x="473.38"> </tspan></text>
</g>
<g clip-path="url(#clip_279)">
<text xml:space="preserve" transform="matrix(1 0 -0 1 0 792)" font-size="11.04" font-family="Ubuntu"><tspan y="-653.62" x="475.9 485.51585 491.1352 495.4408 500.48609 506.83409 509.3843 515.61087 521.71597 527.9425">March 2023</tspan></text>
</g>
<g clip-path="url(#clip_280)">
<text xml:space="preserve" transform="matrix(1 0 -0 1 0 792)" font-size="11.04" font-family="Ubuntu"><tspan y="-653.62" x="534.1"> </tspan></text>
</g>
</g>
<g clip-path="url(#clip_281)">
<g clip-path="url(#clip_282)">
<text xml:space="preserve" transform="matrix(1 0 -0 1 0 792)" font-size="11.04" font-family="Ubuntu" font-weight="bold"><tspan y="-588.58" x="77.424 84.611049 90.71616 97.21873 103.21345 109.925769 113.05009 119.155208 125.65777 128.30738 135.00865 138.23235 142.79186">Canadian Tire</tspan></text>
</g>
<g clip-path="url(#clip_283)">
<text xml:space="preserve" transform="matrix(1 0 -0 1 0 792)" font-size="11.04" font-family="Ubuntu" font-weight="bold"><tspan y="-588.58" x="149.18"> </tspan></text>
</g>
<g clip-path="url(#clip_284)">
<text xml:space="preserve" transform="matrix(1 0 -0 1 0 792)" font-size="11.04" font-family="Ubuntu" font-style="italic"><tspan y="-575.86" x="77.424 84.611049 90.616809 94.72369 100.70737 106.459209 112.56432 115.11456 121.56192 127.31376 133.41889 137.71344 141.69887 147.45072">Garden Centre </tspan></text>
</g>
<g clip-path="url(#clip_285)">
<text xml:space="preserve" transform="matrix(1 0 -0 1 0 792)" font-size="11.04" font-family="Ubuntu" font-style="italic"><tspan y="-575.86" x="150.02 156.9752 161.52368 166.07216 172.09999 177.13423 179.8832 185.88895 190.09519">Associate</tspan></text>
</g>
<g clip-path="url(#clip_286)">
<text xml:space="preserve" transform="matrix(1 0 -0 1 0 792)" font-size="11.04" font-family="Ubuntu" font-style="italic"><tspan y="-575.86" x="195.77"> </tspan></text>
</g>
<g clip-path="url(#clip_287)">
<text xml:space="preserve" transform="matrix(1 0 -0 1 0 792)" font-size="11.04" font-family="CourierNewPSMT"><tspan y="-561.34" x="77.424">&#x25a0;</tspan></text>
</g>
<g clip-path="url(#clip_288)">
<text xml:space="preserve" transform="matrix(1 0 -0 1 0 792)" font-size="11.04" font-family="ArialMT"><tspan y="-561.34" x="84.024"> </tspan></text>
</g>
<g clip-path="url(#clip_289)">
<text xml:space="preserve" transform="matrix(1 0 -0 1 0 792)" font-size="11.04" font-family="Ubuntu"><tspan y="-561.34" x="95.424 105.03984 111.509288 117.846248 120.639369 125.077449 131.54689 135.8525 138.64562 144.98258 151.3637 153.8477 159.72098 164.15906 170.52913 175.66274 181.42562">Monitoring Stock </tspan></text>
</g>
<g clip-path="url(#clip_290)">
<text xml:space="preserve" transform="matrix(1 0 -0 1 0 792)" font-size="11.04" font-family="Ubuntu"><tspan y="-561.34" x="183.98 189.74288 196.07984 202.5824 205.13265 211.21569 215.41089 221.17377 226.30738 232.07025 234.86338 241.20034 247.58145 250.08754 253.0573 259.43843 264.9805 270.95314 277.2901 281.72819 288.2418 292.43699">and Tracking Inventory</tspan></text>
</g>
<g clip-path="url(#clip_291)">
<text xml:space="preserve" transform="matrix(1 0 -0 1 0 792)" font-size="11.04" font-family="Ubuntu"><tspan y="-561.34" x="297.89"> </tspan></text>
</g>
</g>
<g clip-path="url(#clip_292)">
<g clip-path="url(#clip_293)">
<text xml:space="preserve" transform="matrix(1 0 -0 1 0 792)" font-size="11.04" font-family="Ubuntu"><tspan y="-588.58" x="409.39 416.70954 423.2121 427.49565 430.28877 433.2585 435.80876 442.0353 448.26188 454.37803 460.60459">April 2021 </tspan></text>
</g>
<g clip-path="url(#clip_294)">
<text xml:space="preserve" transform="matrix(1 0 -0 1 0 792)" font-size="11.04" font-family="Ubuntu"><tspan y="-588.58" x="463.18">&#x2013;</tspan></text>
</g>
<g clip-path="url(#clip_295)">
<text xml:space="preserve" transform="matrix(1 0 -0 1 0 792)" font-size="11.04" font-family="Ubuntu"><tspan y="-588.58" x="468.7"> </tspan></text>
</g>
<g clip-path="url(#clip_296)">
<text xml:space="preserve" transform="matrix(1 0 -0 1 0 792)" font-size="11.04" font-family="Ubuntu"><tspan y="-588.58" x="471.22 478.53953 484.87648 491.13618 497.47315 502.39698 506.83506 509.38529 515.6118 521.739 527.85519">August 2021</tspan></text>
</g>
<g clip-path="url(#clip_297)">
<text xml:space="preserve" transform="matrix(1 0 -0 1 0 792)" font-size="11.04" font-family="Ubuntu"><tspan y="-588.58" x="534.1"> </tspan></text>
</g>
</g>
<g clip-path="url(#clip_298)">
<text xml:space="preserve" transform="matrix(1 0 -0 1 0 792)" font-size="8.04" font-family="Ubuntu"><tspan y="-543.55" x="72.024"> </tspan></text>
</g>
<g clip-path="url(#clip_299)">
<text xml:space="preserve" transform="matrix(1 0 -0 1 0 792)" font-size="14.04" font-family="Ubuntu" font-weight="bold"><tspan y="-514.63" x="72.024 82.10472 93.12612 100.932369 106.815128 115.211048">Awards</tspan></text>
</g>
<g clip-path="url(#clip_300)">
<text xml:space="preserve" transform="matrix(1 0 -0 1 0 792)" font-size="14.04" font-family="Ubuntu" font-weight="bold"><tspan y="-514.63" x="121.94"> </tspan></text>
</g>
<g clip-path="url(#clip_301)">
<path transform="matrix(1,0,0,-1,0,792)" d="M70.584 509.59H541.534V511.03H70.584Z" fill-rule="evenodd"/>
</g>
<g clip-path="url(#clip_302)">
<g clip-path="url(#clip_303)">
<text xml:space="preserve" transform="matrix(1 0 -0 1 0 792)" font-size="11.04" font-family="Ubuntu" font-weight="bold"><tspan y="-484.87" x="77.424 85.571529 92.272808 98.77537 105.47665 111.84673 116.505619 121.915218 124.56481 134.87618 138.09987 143.00164 149.5042 152.02132 160.15779 163.3042 168.69173 173.59349 176.83927 183.1983 188.7183 193.62007 196.75543 203.45671">Honours With Distinction</tspan></text>
</g>
<g clip-path="url(#clip_304)">
<text xml:space="preserve" transform="matrix(1 0 -0 1 0 792)" font-size="11.04" font-family="Ubuntu" font-weight="bold"><tspan y="-484.87" x="210.05"> </tspan></text>
</g>
</g>
<g clip-path="url(#clip_305)">
<g clip-path="url(#clip_306)">
<text xml:space="preserve" transform="matrix(1 0 -0 1 0 792)" font-size="11.04" font-family="Ubuntu"><tspan y="-484.87" x="482.62 488.13999 494.47694 500.84703 506.96318 509.5134 515.7399 521.9665 528.08267">June 2019</tspan></text>
</g>
<g clip-path="url(#clip_307)">
<text xml:space="preserve" transform="matrix(1 0 -0 1 0 792)" font-size="11.04" font-family="Ubuntu"><tspan y="-484.87" x="534.22"> </tspan></text>
</g>
</g>
<g clip-path="url(#clip_308)">
<g clip-path="url(#clip_309)">
<text xml:space="preserve" transform="matrix(1 0 -0 1 0 792)" font-size="11.04" font-family="Ubuntu" font-weight="bold"><tspan y="-472.27" x="77.424 85.571529 92.272808 98.77537 105.47665 111.84673 116.505619">Honours</tspan></text>
</g>
<g clip-path="url(#clip_310)">
<text xml:space="preserve" transform="matrix(1 0 -0 1 0 792)" font-size="11.04" font-family="Ubuntu" font-weight="bold"><tspan y="-472.27" x="121.82"> </tspan></text>
</g>
</g>
<g clip-path="url(#clip_311)">
<g clip-path="url(#clip_312)">
<text xml:space="preserve" transform="matrix(1 0 -0 1 0 792)" font-size="11.04" font-family="Ubuntu"><tspan y="-472.27" x="482.62 488.13999 494.47694 500.84703 506.96318 509.5134 515.7399 521.9665 528.08267">June 2018</tspan></text>
</g>
<g clip-path="url(#clip_313)">
<text xml:space="preserve" transform="matrix(1 0 -0 1 0 792)" font-size="11.04" font-family="Ubuntu"><tspan y="-472.27" x="534.22"> </tspan></text>
</g>
</g>
<g clip-path="url(#clip_314)">
<text xml:space="preserve" transform="matrix(1 0 -0 1 0 792)" font-size="11.04" font-family="Ubuntu"><tspan y="-459.67" x="72.024"> </tspan></text>
</g>
</g>
</svg>
